<svg xmlns="http://www.w3.org/2000/svg" xmlns:xlink="http://www.w3.org/1999/xlink" width="414" zoomAndPan="magnify" viewBox="0 0 310.5 671.999985" height="896" preserveAspectRatio="xMidYMid meet" version="1.0"><defs><clipPath id="6e8b15bf1d"><path d="M 39.726562 307.183594 L 270.355469 307.183594 L 270.355469 364.839844 L 39.726562 364.839844 Z M 39.726562 307.183594 " clip-rule="nonzero"/></clipPath></defs><g clip-path="url(#6e8b15bf1d)"><path fill="#d06b70" d="M 241.515625 364.839844 C 257.449219 364.839844 270.355469 351.933594 270.355469 336 C 270.355469 320.0625 257.449219 307.160156 241.515625 307.160156 C 225.582031 307.160156 212.675781 320.0625 212.675781 336 C 212.675781 351.933594 225.582031 364.839844 241.515625 364.839844 Z M 68.472656 364.839844 C 84.410156 364.839844 97.3125 351.933594 97.3125 336 C 97.3125 320.0625 84.410156 307.160156 68.472656 307.160156 C 52.539062 307.160156 39.632812 320.0625 39.632812 336 C 39.632812 351.933594 52.539062 364.839844 68.472656 364.839844 Z M 154.996094 364.839844 C 170.929688 364.839844 183.835938 351.933594 183.835938 336 C 183.835938 320.0625 170.929688 307.160156 154.996094 307.160156 C 139.0625 307.160156 126.15625 320.0625 126.15625 336 C 126.15625 351.933594 139.0625 364.839844 154.996094 364.839844 Z M 154.996094 364.839844 " fill-opacity="1" fill-rule="nonzero"/></g></svg>